<svg xmlns="http://www.w3.org/2000/svg" xmlns:xlink="http://www.w3.org/1999/xlink" width="500" zoomAndPan="magnify" viewBox="0 0 375 374.999991" height="500" preserveAspectRatio="xMidYMid meet" version="1.0"><defs><g/><clipPath id="b95a551644"><path d="M 100 113 L 197 113 L 197 250.136719 L 100 250.136719 Z M 100 113 " clip-rule="nonzero"/></clipPath><clipPath id="c8f371d0c3"><path d="M 202 68.636719 L 243 68.636719 L 243 109 L 202 109 Z M 202 68.636719 " clip-rule="nonzero"/></clipPath><clipPath id="19aca83bcb"><path d="M 182 143 L 240 143 L 240 194.566406 L 182 194.566406 Z M 182 143 " clip-rule="nonzero"/></clipPath></defs><rect x="-37.5" width="450" fill="#ffffff" y="-37.499999" height="449.999989" fill-opacity="1"/><rect x="-37.5" width="450" fill="#ffffff" y="-37.499999" height="449.999989" fill-opacity="1"/><path fill="#1f2b5b" d="M 110.617188 133.90625 C 111.777344 126.632812 114.730469 122.550781 117.617188 120.261719 C 119.296875 118.929688 121.566406 120.804688 120.601562 122.71875 C 115.726562 132.402344 118.535156 145.167969 123.792969 157.171875 C 117.921875 149.8125 112.917969 141.792969 110.617188 133.90625 " fill-opacity="1" fill-rule="nonzero"/><g clip-path="url(#b95a551644)"><path fill="#1f2b5b" d="M 183.59375 188.089844 C 176.300781 181.425781 155.660156 164.238281 155.367188 153.875 C 155.070312 143.515625 137.3125 155.90625 155.558594 179.59375 C 155.558594 179.59375 99.382812 155.9375 109.242188 115.386719 C 109.808594 113.058594 105.929688 112.378906 105.003906 114.585938 C 100.984375 124.136719 87.851562 149.695312 134.539062 192.457031 C 166.699219 221.910156 181.71875 224.625 184.945312 250.117188 C 184.945312 250.117188 212.523438 214.527344 183.59375 188.089844 " fill-opacity="1" fill-rule="nonzero"/></g><path fill="#1f2b5b" d="M 119.6875 134.074219 C 119.628906 141.136719 121.933594 148.960938 125.277344 156.558594 C 123.207031 147.367188 123.214844 138.449219 127.335938 131.527344 C 128.433594 129.683594 126.304688 127.652344 124.53125 128.863281 C 122.882812 129.992188 121.175781 131.648438 119.6875 134.074219 " fill-opacity="1" fill-rule="nonzero"/><path fill="#3dbdec" d="M 253.289062 110.558594 C 236.042969 99.460938 210.746094 101.082031 181.652344 115.039062 C 160.480469 103.265625 133.75 103.9375 133.75 103.9375 C 173.449219 116.660156 181.785156 138.945312 181.785156 138.945312 C 202.808594 123.980469 230.488281 121.488281 241.726562 128.519531 C 271.867188 147.378906 235.089844 216.636719 197.894531 243.496094 C 250.09375 213.851562 270.421875 176.335938 271.792969 150.046875 C 272.675781 133.085938 265.929688 118.695312 253.289062 110.558594 " fill-opacity="1" fill-rule="nonzero"/><g clip-path="url(#c8f371d0c3)"><path fill="#3dbdec" d="M 242.992188 88.769531 C 242.992188 99.867188 234 108.863281 222.902344 108.863281 C 211.804688 108.863281 202.808594 99.867188 202.808594 88.769531 C 202.808594 77.671875 211.804688 68.679688 222.902344 68.679688 C 234 68.679688 242.992188 77.671875 242.992188 88.769531 " fill-opacity="1" fill-rule="nonzero"/></g><g fill="#1f2b5b" fill-opacity="1"><g transform="translate(39.18536, 286.0403)"><g><path d="M 18.484375 0.484375 C 14.960938 0.484375 11.972656 -0.164062 9.515625 -1.46875 C 7.066406 -2.78125 5.203125 -4.613281 3.921875 -6.96875 C 2.640625 -9.320312 2 -12.070312 2 -15.21875 C 2 -17.65625 2.382812 -19.851562 3.15625 -21.8125 C 3.925781 -23.78125 5.035156 -25.46875 6.484375 -26.875 C 7.941406 -28.28125 9.722656 -29.351562 11.828125 -30.09375 C 13.941406 -30.84375 16.332031 -31.21875 19 -31.21875 C 20.457031 -31.21875 21.941406 -31.078125 23.453125 -30.796875 C 24.960938 -30.523438 26.445312 -30.007812 27.90625 -29.25 C 28.65625 -28.90625 29.164062 -28.421875 29.4375 -27.796875 C 29.71875 -27.171875 29.804688 -26.515625 29.703125 -25.828125 C 29.609375 -25.148438 29.363281 -24.523438 28.96875 -23.953125 C 28.570312 -23.390625 28.039062 -23.007812 27.375 -22.8125 C 26.707031 -22.625 25.953125 -22.722656 25.109375 -23.109375 C 24.234375 -23.515625 23.285156 -23.828125 22.265625 -24.046875 C 21.253906 -24.265625 20.179688 -24.375 19.046875 -24.375 C 17.097656 -24.375 15.476562 -24.023438 14.1875 -23.328125 C 12.894531 -22.628906 11.925781 -21.59375 11.28125 -20.21875 C 10.644531 -18.851562 10.328125 -17.1875 10.328125 -15.21875 C 10.328125 -12.25 11.050781 -10.007812 12.5 -8.5 C 13.957031 -6.988281 16.113281 -6.234375 18.96875 -6.234375 C 19.832031 -6.234375 20.78125 -6.316406 21.8125 -6.484375 C 22.84375 -6.660156 23.882812 -6.910156 24.9375 -7.234375 L 23.453125 -4.234375 L 23.453125 -11.6875 L 20.40625 -11.6875 C 19.414062 -11.6875 18.648438 -11.929688 18.109375 -12.421875 C 17.578125 -12.921875 17.3125 -13.617188 17.3125 -14.515625 C 17.3125 -15.421875 17.578125 -16.113281 18.109375 -16.59375 C 18.648438 -17.070312 19.414062 -17.3125 20.40625 -17.3125 L 26.859375 -17.3125 C 27.867188 -17.3125 28.644531 -17.039062 29.1875 -16.5 C 29.726562 -15.957031 30 -15.179688 30 -14.171875 L 30 -4.53125 C 30 -3.65625 29.816406 -2.910156 29.453125 -2.296875 C 29.085938 -1.691406 28.507812 -1.257812 27.71875 -1 C 26.351562 -0.539062 24.867188 -0.179688 23.265625 0.078125 C 21.671875 0.347656 20.078125 0.484375 18.484375 0.484375 Z M 18.484375 0.484375 "/></g></g></g><g fill="#1f2b5b" fill-opacity="1"><g transform="translate(69.351635, 286.0403)"><g><path d="M 17.609375 0.484375 C 14.503906 0.484375 11.773438 -0.175781 9.421875 -1.5 C 7.066406 -2.820312 5.238281 -4.675781 3.9375 -7.0625 C 2.644531 -9.445312 2 -12.222656 2 -15.390625 C 2 -17.773438 2.367188 -19.941406 3.109375 -21.890625 C 3.859375 -23.835938 4.921875 -25.503906 6.296875 -26.890625 C 7.679688 -28.285156 9.332031 -29.351562 11.25 -30.09375 C 13.164062 -30.84375 15.285156 -31.21875 17.609375 -31.21875 C 20.722656 -31.21875 23.445312 -30.5625 25.78125 -29.25 C 28.125 -27.945312 29.945312 -26.109375 31.25 -23.734375 C 32.5625 -21.367188 33.21875 -18.585938 33.21875 -15.390625 C 33.21875 -13.003906 32.847656 -10.835938 32.109375 -8.890625 C 31.367188 -6.941406 30.304688 -5.265625 28.921875 -3.859375 C 27.546875 -2.453125 25.894531 -1.375 23.96875 -0.625 C 22.050781 0.113281 19.929688 0.484375 17.609375 0.484375 Z M 17.609375 -6.234375 C 19.148438 -6.234375 20.457031 -6.59375 21.53125 -7.3125 C 22.601562 -8.039062 23.429688 -9.085938 24.015625 -10.453125 C 24.597656 -11.828125 24.890625 -13.472656 24.890625 -15.390625 C 24.890625 -18.265625 24.25 -20.5 22.96875 -22.09375 C 21.695312 -23.695312 19.910156 -24.5 17.609375 -24.5 C 16.097656 -24.5 14.796875 -24.140625 13.703125 -23.421875 C 12.617188 -22.710938 11.785156 -21.679688 11.203125 -20.328125 C 10.617188 -18.984375 10.328125 -17.335938 10.328125 -15.390625 C 10.328125 -12.515625 10.96875 -10.269531 12.25 -8.65625 C 13.53125 -7.039062 15.316406 -6.234375 17.609375 -6.234375 Z M 17.609375 -6.234375 "/></g></g></g><g fill="#1f2b5b" fill-opacity="1"><g transform="translate(102.133537, 286.0403)"><g><path d="M 6.84375 0 C 5.5625 0 4.566406 -0.351562 3.859375 -1.0625 C 3.148438 -1.78125 2.796875 -2.773438 2.796875 -4.046875 L 2.796875 -26.71875 C 2.796875 -28.03125 3.140625 -29.035156 3.828125 -29.734375 C 4.523438 -30.429688 5.515625 -30.78125 6.796875 -30.78125 C 8.109375 -30.78125 9.101562 -30.429688 9.78125 -29.734375 C 10.46875 -29.035156 10.8125 -28.03125 10.8125 -26.71875 L 10.8125 -6.671875 L 21.453125 -6.671875 C 22.554688 -6.671875 23.40625 -6.382812 24 -5.8125 C 24.59375 -5.25 24.890625 -4.429688 24.890625 -3.359375 C 24.890625 -2.285156 24.59375 -1.457031 24 -0.875 C 23.40625 -0.289062 22.554688 0 21.453125 0 Z M 6.84375 0 "/></g></g></g><g fill="#1f2b5b" fill-opacity="1"><g transform="translate(125.237629, 286.0403)"><g><path d="M 6.96875 0 C 5.601562 0 4.566406 -0.351562 3.859375 -1.0625 C 3.148438 -1.78125 2.796875 -2.804688 2.796875 -4.140625 L 2.796875 -26.59375 C 2.796875 -27.925781 3.148438 -28.945312 3.859375 -29.65625 C 4.566406 -30.375 5.601562 -30.734375 6.96875 -30.734375 L 15.515625 -30.734375 C 20.867188 -30.734375 25.003906 -29.394531 27.921875 -26.71875 C 30.835938 -24.050781 32.296875 -20.273438 32.296875 -15.390625 C 32.296875 -12.953125 31.914062 -10.78125 31.15625 -8.875 C 30.40625 -6.96875 29.316406 -5.351562 27.890625 -4.03125 C 26.472656 -2.707031 24.722656 -1.703125 22.640625 -1.015625 C 20.566406 -0.335938 18.191406 0 15.515625 0 Z M 10.8125 -6.5 L 15 -6.5 C 16.539062 -6.5 17.867188 -6.6875 18.984375 -7.0625 C 20.097656 -7.4375 21.023438 -7.988281 21.765625 -8.71875 C 22.515625 -9.445312 23.066406 -10.363281 23.421875 -11.46875 C 23.785156 -12.570312 23.96875 -13.878906 23.96875 -15.390625 C 23.96875 -18.410156 23.226562 -20.640625 21.75 -22.078125 C 20.269531 -23.515625 18.019531 -24.234375 15 -24.234375 L 10.8125 -24.234375 Z M 10.8125 -6.5 "/></g></g></g><g fill="#1f2b5b" fill-opacity="1"><g transform="translate(157.104061, 286.0403)"><g><path d="M 6.96875 0 C 5.601562 0 4.566406 -0.351562 3.859375 -1.0625 C 3.148438 -1.78125 2.796875 -2.804688 2.796875 -4.140625 L 2.796875 -26.59375 C 2.796875 -27.925781 3.148438 -28.945312 3.859375 -29.65625 C 4.566406 -30.375 5.601562 -30.734375 6.96875 -30.734375 L 21.75 -30.734375 C 22.800781 -30.734375 23.585938 -30.472656 24.109375 -29.953125 C 24.628906 -29.429688 24.890625 -28.675781 24.890625 -27.6875 C 24.890625 -26.664062 24.628906 -25.882812 24.109375 -25.34375 C 23.585938 -24.8125 22.800781 -24.546875 21.75 -24.546875 L 10.46875 -24.546875 L 10.46875 -18.703125 L 20.796875 -18.703125 C 21.804688 -18.703125 22.582031 -18.4375 23.125 -17.90625 C 23.664062 -17.382812 23.9375 -16.617188 23.9375 -15.609375 C 23.9375 -14.585938 23.664062 -13.816406 23.125 -13.296875 C 22.582031 -12.773438 21.804688 -12.515625 20.796875 -12.515625 L 10.46875 -12.515625 L 10.46875 -6.1875 L 21.75 -6.1875 C 22.800781 -6.1875 23.585938 -5.914062 24.109375 -5.375 C 24.628906 -4.84375 24.890625 -4.082031 24.890625 -3.09375 C 24.890625 -2.070312 24.628906 -1.300781 24.109375 -0.78125 C 23.585938 -0.257812 22.800781 0 21.75 0 Z M 6.96875 0 "/></g></g></g><g fill="#1f2b5b" fill-opacity="1"><g transform="translate(181.472376, 286.0403)"><g><path d="M 6.53125 0.390625 C 5.3125 0.390625 4.382812 0.0703125 3.75 -0.5625 C 3.113281 -1.207031 2.796875 -2.15625 2.796875 -3.40625 L 2.796875 -27.15625 C 2.796875 -28.4375 3.113281 -29.414062 3.75 -30.09375 C 4.382812 -30.78125 5.226562 -31.125 6.28125 -31.125 C 7.207031 -31.125 7.929688 -30.945312 8.453125 -30.59375 C 8.972656 -30.25 9.554688 -29.671875 10.203125 -28.859375 L 24.015625 -11.59375 L 22.796875 -11.59375 L 22.796875 -27.375 C 22.796875 -28.59375 23.109375 -29.519531 23.734375 -30.15625 C 24.359375 -30.800781 25.28125 -31.125 26.5 -31.125 C 27.71875 -31.125 28.640625 -30.800781 29.265625 -30.15625 C 29.890625 -29.519531 30.203125 -28.59375 30.203125 -27.375 L 30.203125 -3.21875 C 30.203125 -2.113281 29.910156 -1.234375 29.328125 -0.578125 C 28.753906 0.0664062 27.972656 0.390625 26.984375 0.390625 C 25.992188 0.390625 25.210938 0.207031 24.640625 -0.15625 C 24.078125 -0.519531 23.476562 -1.09375 22.84375 -1.875 L 9.03125 -19.1875 L 10.25 -19.1875 L 10.25 -3.40625 C 10.25 -2.15625 9.9375 -1.207031 9.3125 -0.5625 C 8.6875 0.0703125 7.757812 0.390625 6.53125 0.390625 Z M 6.53125 0.390625 "/></g></g></g><g fill="#1f2b5b" fill-opacity="1"><g transform="translate(212.118187, 286.0403)"><g/></g></g><g fill="#1f2b5b" fill-opacity="1"><g transform="translate(222.18774, 286.0403)"><g><path d="M 18.3125 0.484375 C 14.90625 0.484375 11.984375 -0.164062 9.546875 -1.46875 C 7.109375 -2.78125 5.238281 -4.628906 3.9375 -7.015625 C 2.644531 -9.398438 2 -12.191406 2 -15.390625 C 2 -17.773438 2.367188 -19.941406 3.109375 -21.890625 C 3.859375 -23.835938 4.9375 -25.503906 6.34375 -26.890625 C 7.75 -28.285156 9.460938 -29.351562 11.484375 -30.09375 C 13.503906 -30.84375 15.78125 -31.21875 18.3125 -31.21875 C 19.644531 -31.21875 21.03125 -31.0625 22.46875 -30.75 C 23.90625 -30.445312 25.175781 -29.988281 26.28125 -29.375 C 27.09375 -28.945312 27.660156 -28.394531 27.984375 -27.71875 C 28.304688 -27.050781 28.414062 -26.367188 28.3125 -25.671875 C 28.207031 -24.972656 27.953125 -24.347656 27.546875 -23.796875 C 27.140625 -23.242188 26.613281 -22.875 25.96875 -22.6875 C 25.332031 -22.5 24.640625 -22.59375 23.890625 -22.96875 C 23.015625 -23.375 22.148438 -23.6875 21.296875 -23.90625 C 20.441406 -24.125 19.546875 -24.234375 18.609375 -24.234375 C 16.804688 -24.234375 15.300781 -23.890625 14.09375 -23.203125 C 12.894531 -22.523438 11.988281 -21.53125 11.375 -20.21875 C 10.769531 -18.914062 10.46875 -17.304688 10.46875 -15.390625 C 10.46875 -13.472656 10.769531 -11.851562 11.375 -10.53125 C 11.988281 -9.207031 12.894531 -8.203125 14.09375 -7.515625 C 15.300781 -6.835938 16.804688 -6.5 18.609375 -6.5 C 19.367188 -6.5 20.179688 -6.59375 21.046875 -6.78125 C 21.921875 -6.96875 22.78125 -7.265625 23.625 -7.671875 C 24.5 -8.046875 25.273438 -8.144531 25.953125 -7.96875 C 26.640625 -7.800781 27.191406 -7.453125 27.609375 -6.921875 C 28.035156 -6.398438 28.304688 -5.796875 28.421875 -5.109375 C 28.535156 -4.429688 28.441406 -3.757812 28.140625 -3.09375 C 27.835938 -2.425781 27.304688 -1.890625 26.546875 -1.484375 C 25.523438 -0.867188 24.265625 -0.382812 22.765625 -0.03125 C 21.273438 0.3125 19.789062 0.484375 18.3125 0.484375 Z M 18.3125 0.484375 "/></g></g></g><g fill="#1f2b5b" fill-opacity="1"><g transform="translate(249.781996, 286.0403)"><g><path d="M 4.234375 0.390625 C 3.328125 0.390625 2.566406 0.179688 1.953125 -0.234375 C 1.347656 -0.660156 0.972656 -1.242188 0.828125 -1.984375 C 0.679688 -2.722656 0.8125 -3.554688 1.21875 -4.484375 L 12.078125 -27.859375 C 12.597656 -28.992188 13.242188 -29.820312 14.015625 -30.34375 C 14.785156 -30.863281 15.664062 -31.125 16.65625 -31.125 C 17.644531 -31.125 18.507812 -30.863281 19.25 -30.34375 C 19.988281 -29.820312 20.632812 -28.992188 21.1875 -27.859375 L 32.046875 -4.484375 C 32.503906 -3.554688 32.664062 -2.710938 32.53125 -1.953125 C 32.40625 -1.203125 32.046875 -0.625 31.453125 -0.21875 C 30.859375 0.1875 30.125 0.390625 29.25 0.390625 C 28.082031 0.390625 27.1875 0.128906 26.5625 -0.390625 C 25.945312 -0.910156 25.390625 -1.753906 24.890625 -2.921875 L 22.53125 -8.453125 L 25.59375 -6.234375 L 7.625 -6.234375 L 10.71875 -8.453125 L 8.375 -2.921875 C 7.84375 -1.753906 7.300781 -0.910156 6.75 -0.390625 C 6.195312 0.128906 5.359375 0.390625 4.234375 0.390625 Z M 16.5625 -22.359375 L 11.515625 -10.28125 L 10.28125 -12.375 L 22.96875 -12.375 L 21.75 -10.28125 L 16.65625 -22.359375 Z M 16.5625 -22.359375 "/></g></g></g><g fill="#1f2b5b" fill-opacity="1"><g transform="translate(280.645771, 286.0403)"><g><path d="M 6.796875 0.390625 C 5.515625 0.390625 4.523438 0.0351562 3.828125 -0.671875 C 3.140625 -1.390625 2.796875 -2.382812 2.796875 -3.65625 L 2.796875 -26.671875 C 2.796875 -27.984375 3.148438 -28.988281 3.859375 -29.6875 C 4.566406 -30.382812 5.5625 -30.734375 6.84375 -30.734375 L 17.5625 -30.734375 C 21.050781 -30.734375 23.75 -29.882812 25.65625 -28.1875 C 27.5625 -26.488281 28.515625 -24.125 28.515625 -21.09375 C 28.515625 -19.144531 28.082031 -17.453125 27.21875 -16.015625 C 26.363281 -14.578125 25.128906 -13.472656 23.515625 -12.703125 C 21.898438 -11.929688 19.914062 -11.546875 17.5625 -11.546875 L 17.921875 -12.34375 L 20.015625 -12.34375 C 21.265625 -12.34375 22.367188 -12.039062 23.328125 -11.4375 C 24.285156 -10.84375 25.082031 -9.9375 25.71875 -8.71875 L 27.90625 -4.796875 C 28.363281 -3.953125 28.578125 -3.128906 28.546875 -2.328125 C 28.523438 -1.535156 28.210938 -0.882812 27.609375 -0.375 C 27.015625 0.132812 26.148438 0.390625 25.015625 0.390625 C 23.890625 0.390625 22.96875 0.160156 22.25 -0.296875 C 21.539062 -0.765625 20.910156 -1.492188 20.359375 -2.484375 L 16.390625 -9.765625 C 16.046875 -10.398438 15.601562 -10.84375 15.0625 -11.09375 C 14.519531 -11.34375 13.898438 -11.46875 13.203125 -11.46875 L 10.8125 -11.46875 L 10.8125 -3.65625 C 10.8125 -2.382812 10.476562 -1.390625 9.8125 -0.671875 C 9.144531 0.0351562 8.140625 0.390625 6.796875 0.390625 Z M 10.8125 -17.125 L 16.125 -17.125 C 17.664062 -17.125 18.84375 -17.429688 19.65625 -18.046875 C 20.46875 -18.660156 20.875 -19.601562 20.875 -20.875 C 20.875 -22.101562 20.46875 -23.03125 19.65625 -23.65625 C 18.84375 -24.28125 17.664062 -24.59375 16.125 -24.59375 L 10.8125 -24.59375 Z M 10.8125 -17.125 "/></g></g></g><g fill="#1f2b5b" fill-opacity="1"><g transform="translate(309.024714, 286.0403)"><g><path d="M 6.96875 0 C 5.601562 0 4.566406 -0.351562 3.859375 -1.0625 C 3.148438 -1.78125 2.796875 -2.804688 2.796875 -4.140625 L 2.796875 -26.59375 C 2.796875 -27.925781 3.148438 -28.945312 3.859375 -29.65625 C 4.566406 -30.375 5.601562 -30.734375 6.96875 -30.734375 L 21.75 -30.734375 C 22.800781 -30.734375 23.585938 -30.472656 24.109375 -29.953125 C 24.628906 -29.429688 24.890625 -28.675781 24.890625 -27.6875 C 24.890625 -26.664062 24.628906 -25.882812 24.109375 -25.34375 C 23.585938 -24.8125 22.800781 -24.546875 21.75 -24.546875 L 10.46875 -24.546875 L 10.46875 -18.703125 L 20.796875 -18.703125 C 21.804688 -18.703125 22.582031 -18.4375 23.125 -17.90625 C 23.664062 -17.382812 23.9375 -16.617188 23.9375 -15.609375 C 23.9375 -14.585938 23.664062 -13.816406 23.125 -13.296875 C 22.582031 -12.773438 21.804688 -12.515625 20.796875 -12.515625 L 10.46875 -12.515625 L 10.46875 -6.1875 L 21.75 -6.1875 C 22.800781 -6.1875 23.585938 -5.914062 24.109375 -5.375 C 24.628906 -4.84375 24.890625 -4.082031 24.890625 -3.09375 C 24.890625 -2.070312 24.628906 -1.300781 24.109375 -0.78125 C 23.585938 -0.257812 22.800781 0 21.75 0 Z M 6.96875 0 "/></g></g></g><g clip-path="url(#19aca83bcb)"><path fill="#3dbdec" d="M 239.367188 155.808594 C 236.179688 139.414062 216.203125 139.140625 211.273438 154.46875 C 206.347656 139.140625 186.371094 139.414062 183.183594 155.808594 C 180.289062 170.683594 211.273438 194.152344 211.273438 194.152344 C 211.273438 194.152344 242.257812 170.683594 239.367188 155.808594 Z M 239.367188 155.808594 " fill-opacity="1" fill-rule="nonzero"/></g><g fill="#1f2b5b" fill-opacity="1"><g transform="translate(96.879113, 304.590009)"><g><path d="M 8.59375 -2.15625 C 8.59375 -2.0625 8.578125 -1.960938 8.546875 -1.859375 C 8.523438 -1.753906 8.472656 -1.65625 8.390625 -1.5625 C 8.109375 -1.238281 7.765625 -0.945312 7.359375 -0.6875 C 6.960938 -0.425781 6.539062 -0.222656 6.09375 -0.078125 C 5.644531 0.0664062 5.203125 0.140625 4.765625 0.140625 C 3.835938 0.140625 3.035156 -0.0507812 2.359375 -0.4375 C 1.679688 -0.832031 1.15625 -1.382812 0.78125 -2.09375 C 0.414062 -2.800781 0.242188 -3.613281 0.265625 -4.53125 C 0.265625 -5.4375 0.453125 -6.226562 0.828125 -6.90625 C 1.210938 -7.582031 1.742188 -8.109375 2.421875 -8.484375 C 3.097656 -8.867188 3.890625 -9.0625 4.796875 -9.0625 C 5.410156 -9.0625 6.019531 -8.945312 6.625 -8.71875 C 7.226562 -8.5 7.734375 -8.171875 8.140625 -7.734375 C 8.335938 -7.523438 8.425781 -7.316406 8.40625 -7.109375 C 8.394531 -6.898438 8.3125 -6.734375 8.15625 -6.609375 C 8 -6.484375 7.8125 -6.425781 7.59375 -6.4375 C 7.375 -6.445312 7.160156 -6.5625 6.953125 -6.78125 C 6.660156 -7.09375 6.320312 -7.316406 5.9375 -7.453125 C 5.5625 -7.597656 5.179688 -7.671875 4.796875 -7.671875 C 4.222656 -7.671875 3.710938 -7.535156 3.265625 -7.265625 C 2.828125 -7.003906 2.484375 -6.632812 2.234375 -6.15625 C 1.992188 -5.6875 1.875 -5.132812 1.875 -4.5 C 1.882812 -3.875 2.007812 -3.316406 2.25 -2.828125 C 2.5 -2.335938 2.835938 -1.957031 3.265625 -1.6875 C 3.703125 -1.414062 4.207031 -1.28125 4.78125 -1.28125 C 5.1875 -1.28125 5.59375 -1.367188 6 -1.546875 C 6.40625 -1.722656 6.742188 -1.972656 7.015625 -2.296875 L 7.015625 -3.71875 L 4.96875 -3.71875 C 4.707031 -3.71875 4.515625 -3.785156 4.390625 -3.921875 C 4.265625 -4.066406 4.203125 -4.222656 4.203125 -4.390625 C 4.203125 -4.578125 4.265625 -4.742188 4.390625 -4.890625 C 4.515625 -5.035156 4.707031 -5.109375 4.96875 -5.109375 L 7.75 -5.109375 C 8.082031 -5.109375 8.304688 -5.035156 8.421875 -4.890625 C 8.535156 -4.753906 8.59375 -4.578125 8.59375 -4.359375 Z M 8.59375 -2.15625 "/></g></g></g><g fill="#1f2b5b" fill-opacity="1"><g transform="translate(108.451613, 304.590009)"><g><path d="M 1.640625 0 C 1.335938 0 1.117188 -0.0625 0.984375 -0.1875 C 0.859375 -0.320312 0.796875 -0.507812 0.796875 -0.75 L 0.796875 -8.203125 C 0.796875 -8.441406 0.878906 -8.617188 1.046875 -8.734375 C 1.222656 -8.859375 1.414062 -8.921875 1.625 -8.921875 C 1.820312 -8.921875 2.003906 -8.859375 2.171875 -8.734375 C 2.347656 -8.617188 2.4375 -8.441406 2.4375 -8.203125 L 2.4375 -1.40625 L 7.03125 -1.40625 C 7.300781 -1.40625 7.507812 -1.328125 7.65625 -1.171875 C 7.800781 -1.023438 7.875 -0.867188 7.875 -0.703125 C 7.875 -0.523438 7.800781 -0.363281 7.65625 -0.21875 C 7.507812 -0.0703125 7.300781 0 7.03125 0 Z M 1.640625 0 "/></g></g></g><g fill="#1f2b5b" fill-opacity="1"><g transform="translate(118.219118, 304.590009)"><g><path d="M 9.453125 -4.453125 C 9.453125 -3.535156 9.257812 -2.734375 8.875 -2.046875 C 8.5 -1.359375 7.96875 -0.820312 7.28125 -0.4375 C 6.601562 -0.0507812 5.8125 0.140625 4.90625 0.140625 C 3.988281 0.140625 3.179688 -0.0507812 2.484375 -0.4375 C 1.796875 -0.820312 1.257812 -1.359375 0.875 -2.046875 C 0.5 -2.734375 0.3125 -3.535156 0.3125 -4.453125 C 0.3125 -5.378906 0.5 -6.1875 0.875 -6.875 C 1.257812 -7.5625 1.796875 -8.097656 2.484375 -8.484375 C 3.179688 -8.867188 3.988281 -9.0625 4.90625 -9.0625 C 5.8125 -9.0625 6.601562 -8.867188 7.28125 -8.484375 C 7.96875 -8.097656 8.5 -7.5625 8.875 -6.875 C 9.257812 -6.1875 9.453125 -5.378906 9.453125 -4.453125 Z M 4.90625 -1.28125 C 5.488281 -1.28125 5.992188 -1.414062 6.421875 -1.6875 C 6.859375 -1.957031 7.195312 -2.328125 7.4375 -2.796875 C 7.6875 -3.273438 7.8125 -3.828125 7.8125 -4.453125 C 7.8125 -5.085938 7.6875 -5.640625 7.4375 -6.109375 C 7.195312 -6.585938 6.859375 -6.957031 6.421875 -7.21875 C 5.992188 -7.488281 5.488281 -7.625 4.90625 -7.625 C 4.3125 -7.625 3.789062 -7.488281 3.34375 -7.21875 C 2.90625 -6.957031 2.5625 -6.585938 2.3125 -6.109375 C 2.070312 -5.640625 1.953125 -5.085938 1.953125 -4.453125 C 1.953125 -3.828125 2.070312 -3.273438 2.3125 -2.796875 C 2.5625 -2.328125 2.90625 -1.957031 3.34375 -1.6875 C 3.789062 -1.414062 4.3125 -1.28125 4.90625 -1.28125 Z M 4.90625 -1.28125 "/></g></g></g><g fill="#1f2b5b" fill-opacity="1"><g transform="translate(130.351305, 304.590009)"><g><path d="M 4.78125 -8.921875 C 5.113281 -8.921875 5.476562 -8.890625 5.875 -8.828125 C 6.269531 -8.765625 6.644531 -8.648438 7 -8.484375 C 7.351562 -8.316406 7.644531 -8.066406 7.875 -7.734375 C 8.101562 -7.410156 8.21875 -6.988281 8.21875 -6.46875 C 8.21875 -6.164062 8.144531 -5.851562 8 -5.53125 C 7.851562 -5.21875 7.648438 -4.988281 7.390625 -4.84375 C 7.878906 -4.644531 8.238281 -4.359375 8.46875 -3.984375 C 8.707031 -3.617188 8.828125 -3.191406 8.828125 -2.703125 C 8.828125 -2.160156 8.71875 -1.710938 8.5 -1.359375 C 8.28125 -1.015625 7.988281 -0.738281 7.625 -0.53125 C 7.257812 -0.332031 6.851562 -0.191406 6.40625 -0.109375 C 5.96875 -0.0351562 5.519531 0 5.0625 0 L 1.65625 0 C 1.425781 0 1.226562 -0.0703125 1.0625 -0.21875 C 0.90625 -0.363281 0.828125 -0.535156 0.828125 -0.734375 L 0.828125 -8.171875 C 0.828125 -8.390625 0.90625 -8.566406 1.0625 -8.703125 C 1.226562 -8.847656 1.425781 -8.921875 1.65625 -8.921875 Z M 4.78125 -7.53125 L 2.453125 -7.53125 L 2.453125 -5.359375 L 4.8125 -5.359375 C 5.289062 -5.359375 5.707031 -5.441406 6.0625 -5.609375 C 6.425781 -5.785156 6.609375 -6.070312 6.609375 -6.46875 C 6.609375 -6.78125 6.503906 -7.007812 6.296875 -7.15625 C 6.085938 -7.300781 5.835938 -7.398438 5.546875 -7.453125 C 5.265625 -7.503906 5.007812 -7.53125 4.78125 -7.53125 Z M 5.46875 -3.96875 L 2.453125 -3.96875 L 2.453125 -1.390625 L 5.0625 -1.390625 C 5.40625 -1.390625 5.738281 -1.421875 6.0625 -1.484375 C 6.382812 -1.546875 6.648438 -1.671875 6.859375 -1.859375 C 7.078125 -2.054688 7.1875 -2.335938 7.1875 -2.703125 C 7.1875 -3.128906 7.019531 -3.445312 6.6875 -3.65625 C 6.351562 -3.863281 5.945312 -3.96875 5.46875 -3.96875 Z M 5.46875 -3.96875 "/></g></g></g><g fill="#1f2b5b" fill-opacity="1"><g transform="translate(141.671943, 304.590009)"><g><path d="M 4.578125 -9.0625 C 4.722656 -9.0625 4.859375 -9.03125 4.984375 -8.96875 C 5.117188 -8.90625 5.222656 -8.804688 5.296875 -8.671875 L 9.25 -0.890625 C 9.375 -0.691406 9.40625 -0.515625 9.34375 -0.359375 C 9.289062 -0.203125 9.1875 -0.0820312 9.03125 0 C 8.875 0.09375 8.707031 0.140625 8.53125 0.140625 C 8.394531 0.140625 8.257812 0.101562 8.125 0.03125 C 7.988281 -0.03125 7.882812 -0.128906 7.8125 -0.265625 L 6.828125 -2.21875 L 2.328125 -2.21875 L 1.34375 -0.265625 C 1.28125 -0.117188 1.179688 -0.015625 1.046875 0.046875 C 0.910156 0.109375 0.773438 0.140625 0.640625 0.140625 C 0.484375 0.140625 0.328125 0.09375 0.171875 0 C 0.015625 -0.0820312 -0.09375 -0.203125 -0.15625 -0.359375 C -0.226562 -0.515625 -0.222656 -0.679688 -0.140625 -0.859375 L 3.84375 -8.671875 C 3.925781 -8.828125 4.023438 -8.929688 4.140625 -8.984375 C 4.253906 -9.035156 4.398438 -9.0625 4.578125 -9.0625 Z M 4.578125 -6.6875 L 3.015625 -3.5625 L 6.140625 -3.5625 Z M 4.578125 -6.6875 "/></g></g></g><g fill="#1f2b5b" fill-opacity="1"><g transform="translate(153.132496, 304.590009)"><g><path d="M 1.640625 0 C 1.335938 0 1.117188 -0.0625 0.984375 -0.1875 C 0.859375 -0.320312 0.796875 -0.507812 0.796875 -0.75 L 0.796875 -8.203125 C 0.796875 -8.441406 0.878906 -8.617188 1.046875 -8.734375 C 1.222656 -8.859375 1.414062 -8.921875 1.625 -8.921875 C 1.820312 -8.921875 2.003906 -8.859375 2.171875 -8.734375 C 2.347656 -8.617188 2.4375 -8.441406 2.4375 -8.203125 L 2.4375 -1.40625 L 7.03125 -1.40625 C 7.300781 -1.40625 7.507812 -1.328125 7.65625 -1.171875 C 7.800781 -1.023438 7.875 -0.867188 7.875 -0.703125 C 7.875 -0.523438 7.800781 -0.363281 7.65625 -0.21875 C 7.507812 -0.0703125 7.300781 0 7.03125 0 Z M 1.640625 0 "/></g></g></g><g fill="#1f2b5b" fill-opacity="1"><g transform="translate(162.899999, 304.590009)"><g/></g></g><g fill="#1f2b5b" fill-opacity="1"><g transform="translate(168.427867, 304.590009)"><g><path d="M 7.296875 -1.40625 C 7.535156 -1.40625 7.722656 -1.328125 7.859375 -1.171875 C 7.992188 -1.015625 8.0625 -0.847656 8.0625 -0.671875 C 8.0625 -0.503906 8 -0.347656 7.875 -0.203125 C 7.75 -0.0664062 7.554688 0 7.296875 0 L 1.734375 0 C 1.453125 0 1.226562 -0.078125 1.0625 -0.234375 C 0.894531 -0.398438 0.8125 -0.601562 0.8125 -0.84375 L 0.8125 -8.09375 C 0.8125 -8.3125 0.894531 -8.503906 1.0625 -8.671875 C 1.226562 -8.835938 1.453125 -8.921875 1.734375 -8.921875 L 7.296875 -8.921875 C 7.546875 -8.921875 7.726562 -8.851562 7.84375 -8.71875 C 7.96875 -8.582031 8.03125 -8.425781 8.03125 -8.25 C 8.03125 -8.082031 7.96875 -7.921875 7.84375 -7.765625 C 7.71875 -7.617188 7.535156 -7.546875 7.296875 -7.546875 L 2.40625 -7.546875 L 2.40625 -5.09375 L 7.046875 -5.09375 C 7.285156 -5.09375 7.460938 -5.019531 7.578125 -4.875 C 7.703125 -4.726562 7.765625 -4.566406 7.765625 -4.390625 C 7.765625 -4.222656 7.703125 -4.066406 7.578125 -3.921875 C 7.460938 -3.785156 7.285156 -3.71875 7.046875 -3.71875 L 2.40625 -3.71875 L 2.40625 -1.40625 Z M 7.296875 -1.40625 "/></g></g></g><g fill="#1f2b5b" fill-opacity="1"><g transform="translate(179.076874, 304.590009)"><g><path d="M 1.65625 -8.921875 C 1.945312 -8.921875 2.179688 -8.78125 2.359375 -8.5 L 5.296875 -3.921875 L 8.203125 -8.515625 C 8.296875 -8.648438 8.410156 -8.75 8.546875 -8.8125 C 8.679688 -8.882812 8.816406 -8.921875 8.953125 -8.921875 C 9.148438 -8.921875 9.328125 -8.851562 9.484375 -8.71875 C 9.648438 -8.582031 9.734375 -8.390625 9.734375 -8.140625 L 9.734375 -0.734375 C 9.734375 -0.484375 9.644531 -0.296875 9.46875 -0.171875 C 9.289062 -0.0546875 9.101562 0 8.90625 0 C 8.695312 0 8.507812 -0.0546875 8.34375 -0.171875 C 8.1875 -0.296875 8.109375 -0.484375 8.109375 -0.734375 L 8.109375 -5.453125 L 6.015625 -2.1875 C 5.941406 -2.039062 5.835938 -1.9375 5.703125 -1.875 C 5.566406 -1.8125 5.429688 -1.78125 5.296875 -1.78125 C 5.148438 -1.78125 5.003906 -1.816406 4.859375 -1.890625 C 4.710938 -1.972656 4.601562 -2.082031 4.53125 -2.21875 L 2.484375 -5.4375 L 2.484375 -0.734375 C 2.484375 -0.484375 2.394531 -0.296875 2.21875 -0.171875 C 2.039062 -0.0546875 1.859375 0 1.671875 0 C 1.460938 0 1.273438 -0.0546875 1.109375 -0.171875 C 0.941406 -0.296875 0.859375 -0.484375 0.859375 -0.734375 L 0.859375 -8.125 C 0.859375 -8.363281 0.9375 -8.554688 1.09375 -8.703125 C 1.257812 -8.847656 1.445312 -8.921875 1.65625 -8.921875 Z M 1.65625 -8.921875 "/></g></g></g><g fill="#1f2b5b" fill-opacity="1"><g transform="translate(192.006609, 304.590009)"><g><path d="M 2.421875 -2.484375 L 2.421875 -0.71875 C 2.421875 -0.46875 2.332031 -0.285156 2.15625 -0.171875 C 1.988281 -0.0546875 1.804688 0 1.609375 0 C 1.398438 0 1.210938 -0.0546875 1.046875 -0.171875 C 0.890625 -0.285156 0.8125 -0.460938 0.8125 -0.703125 L 0.8125 -8.1875 C 0.8125 -8.40625 0.890625 -8.582031 1.046875 -8.71875 C 1.203125 -8.851562 1.394531 -8.921875 1.625 -8.921875 L 4.484375 -8.921875 C 5.253906 -8.921875 5.914062 -8.78125 6.46875 -8.5 C 7.019531 -8.226562 7.4375 -7.847656 7.71875 -7.359375 C 8.007812 -6.867188 8.15625 -6.289062 8.15625 -5.625 C 8.15625 -4.6875 7.828125 -3.925781 7.171875 -3.34375 C 6.523438 -2.769531 5.613281 -2.484375 4.4375 -2.484375 Z M 2.421875 -7.53125 L 2.421875 -3.859375 L 4.4375 -3.859375 C 5.125 -3.859375 5.648438 -4.019531 6.015625 -4.34375 C 6.378906 -4.664062 6.5625 -5.09375 6.5625 -5.625 C 6.5625 -6.207031 6.378906 -6.671875 6.015625 -7.015625 C 5.660156 -7.359375 5.15625 -7.53125 4.5 -7.53125 Z M 2.421875 -7.53125 "/></g></g></g><g fill="#1f2b5b" fill-opacity="1"><g transform="translate(202.669618, 304.590009)"><g><path d="M 1.640625 0 C 1.335938 0 1.117188 -0.0625 0.984375 -0.1875 C 0.859375 -0.320312 0.796875 -0.507812 0.796875 -0.75 L 0.796875 -8.203125 C 0.796875 -8.441406 0.878906 -8.617188 1.046875 -8.734375 C 1.222656 -8.859375 1.414062 -8.921875 1.625 -8.921875 C 1.820312 -8.921875 2.003906 -8.859375 2.171875 -8.734375 C 2.347656 -8.617188 2.4375 -8.441406 2.4375 -8.203125 L 2.4375 -1.40625 L 7.03125 -1.40625 C 7.300781 -1.40625 7.507812 -1.328125 7.65625 -1.171875 C 7.800781 -1.023438 7.875 -0.867188 7.875 -0.703125 C 7.875 -0.523438 7.800781 -0.363281 7.65625 -0.21875 C 7.507812 -0.0703125 7.300781 0 7.03125 0 Z M 1.640625 0 "/></g></g></g><g fill="#1f2b5b" fill-opacity="1"><g transform="translate(212.437127, 304.590009)"><g><path d="M 9.453125 -4.453125 C 9.453125 -3.535156 9.257812 -2.734375 8.875 -2.046875 C 8.5 -1.359375 7.96875 -0.820312 7.28125 -0.4375 C 6.601562 -0.0507812 5.8125 0.140625 4.90625 0.140625 C 3.988281 0.140625 3.179688 -0.0507812 2.484375 -0.4375 C 1.796875 -0.820312 1.257812 -1.359375 0.875 -2.046875 C 0.5 -2.734375 0.3125 -3.535156 0.3125 -4.453125 C 0.3125 -5.378906 0.5 -6.1875 0.875 -6.875 C 1.257812 -7.5625 1.796875 -8.097656 2.484375 -8.484375 C 3.179688 -8.867188 3.988281 -9.0625 4.90625 -9.0625 C 5.8125 -9.0625 6.601562 -8.867188 7.28125 -8.484375 C 7.96875 -8.097656 8.5 -7.5625 8.875 -6.875 C 9.257812 -6.1875 9.453125 -5.378906 9.453125 -4.453125 Z M 4.90625 -1.28125 C 5.488281 -1.28125 5.992188 -1.414062 6.421875 -1.6875 C 6.859375 -1.957031 7.195312 -2.328125 7.4375 -2.796875 C 7.6875 -3.273438 7.8125 -3.828125 7.8125 -4.453125 C 7.8125 -5.085938 7.6875 -5.640625 7.4375 -6.109375 C 7.195312 -6.585938 6.859375 -6.957031 6.421875 -7.21875 C 5.992188 -7.488281 5.488281 -7.625 4.90625 -7.625 C 4.3125 -7.625 3.789062 -7.488281 3.34375 -7.21875 C 2.90625 -6.957031 2.5625 -6.585938 2.3125 -6.109375 C 2.070312 -5.640625 1.953125 -5.085938 1.953125 -4.453125 C 1.953125 -3.828125 2.070312 -3.273438 2.3125 -2.796875 C 2.5625 -2.328125 2.90625 -1.957031 3.34375 -1.6875 C 3.789062 -1.414062 4.3125 -1.28125 4.90625 -1.28125 Z M 4.90625 -1.28125 "/></g></g></g><g fill="#1f2b5b" fill-opacity="1"><g transform="translate(224.569317, 304.590009)"><g><path d="M 1.46875 -8.53125 L 4.046875 -5.015625 L 6.625 -8.484375 C 6.726562 -8.617188 6.84375 -8.722656 6.96875 -8.796875 C 7.09375 -8.878906 7.226562 -8.921875 7.375 -8.921875 C 7.550781 -8.921875 7.707031 -8.859375 7.84375 -8.734375 C 7.988281 -8.609375 8.078125 -8.453125 8.109375 -8.265625 C 8.140625 -8.085938 8.082031 -7.894531 7.9375 -7.6875 L 4.875 -3.578125 L 4.875 -0.84375 C 4.875 -0.582031 4.785156 -0.375 4.609375 -0.21875 C 4.429688 -0.0703125 4.25 0 4.0625 0 C 3.832031 0 3.640625 -0.0703125 3.484375 -0.21875 C 3.328125 -0.375 3.25 -0.582031 3.25 -0.84375 L 3.25 -3.578125 L 0.109375 -7.734375 C -0.0234375 -7.921875 -0.078125 -8.101562 -0.046875 -8.28125 C -0.015625 -8.46875 0.0703125 -8.617188 0.21875 -8.734375 C 0.375 -8.859375 0.546875 -8.921875 0.734375 -8.921875 C 1.035156 -8.921875 1.28125 -8.789062 1.46875 -8.53125 Z M 1.46875 -8.53125 "/></g></g></g><g fill="#1f2b5b" fill-opacity="1"><g transform="translate(234.910506, 304.590009)"><g><path d="M 1.65625 -8.921875 C 1.945312 -8.921875 2.179688 -8.78125 2.359375 -8.5 L 5.296875 -3.921875 L 8.203125 -8.515625 C 8.296875 -8.648438 8.410156 -8.75 8.546875 -8.8125 C 8.679688 -8.882812 8.816406 -8.921875 8.953125 -8.921875 C 9.148438 -8.921875 9.328125 -8.851562 9.484375 -8.71875 C 9.648438 -8.582031 9.734375 -8.390625 9.734375 -8.140625 L 9.734375 -0.734375 C 9.734375 -0.484375 9.644531 -0.296875 9.46875 -0.171875 C 9.289062 -0.0546875 9.101562 0 8.90625 0 C 8.695312 0 8.507812 -0.0546875 8.34375 -0.171875 C 8.1875 -0.296875 8.109375 -0.484375 8.109375 -0.734375 L 8.109375 -5.453125 L 6.015625 -2.1875 C 5.941406 -2.039062 5.835938 -1.9375 5.703125 -1.875 C 5.566406 -1.8125 5.429688 -1.78125 5.296875 -1.78125 C 5.148438 -1.78125 5.003906 -1.816406 4.859375 -1.890625 C 4.710938 -1.972656 4.601562 -2.082031 4.53125 -2.21875 L 2.484375 -5.4375 L 2.484375 -0.734375 C 2.484375 -0.484375 2.394531 -0.296875 2.21875 -0.171875 C 2.039062 -0.0546875 1.859375 0 1.671875 0 C 1.460938 0 1.273438 -0.0546875 1.109375 -0.171875 C 0.941406 -0.296875 0.859375 -0.484375 0.859375 -0.734375 L 0.859375 -8.125 C 0.859375 -8.363281 0.9375 -8.554688 1.09375 -8.703125 C 1.257812 -8.847656 1.445312 -8.921875 1.65625 -8.921875 Z M 1.65625 -8.921875 "/></g></g></g><g fill="#1f2b5b" fill-opacity="1"><g transform="translate(247.840247, 304.590009)"><g><path d="M 7.296875 -1.40625 C 7.535156 -1.40625 7.722656 -1.328125 7.859375 -1.171875 C 7.992188 -1.015625 8.0625 -0.847656 8.0625 -0.671875 C 8.0625 -0.503906 8 -0.347656 7.875 -0.203125 C 7.75 -0.0664062 7.554688 0 7.296875 0 L 1.734375 0 C 1.453125 0 1.226562 -0.078125 1.0625 -0.234375 C 0.894531 -0.398438 0.8125 -0.601562 0.8125 -0.84375 L 0.8125 -8.09375 C 0.8125 -8.3125 0.894531 -8.503906 1.0625 -8.671875 C 1.226562 -8.835938 1.453125 -8.921875 1.734375 -8.921875 L 7.296875 -8.921875 C 7.546875 -8.921875 7.726562 -8.851562 7.84375 -8.71875 C 7.96875 -8.582031 8.03125 -8.425781 8.03125 -8.25 C 8.03125 -8.082031 7.96875 -7.921875 7.84375 -7.765625 C 7.71875 -7.617188 7.535156 -7.546875 7.296875 -7.546875 L 2.40625 -7.546875 L 2.40625 -5.09375 L 7.046875 -5.09375 C 7.285156 -5.09375 7.460938 -5.019531 7.578125 -4.875 C 7.703125 -4.726562 7.765625 -4.566406 7.765625 -4.390625 C 7.765625 -4.222656 7.703125 -4.066406 7.578125 -3.921875 C 7.460938 -3.785156 7.285156 -3.71875 7.046875 -3.71875 L 2.40625 -3.71875 L 2.40625 -1.40625 Z M 7.296875 -1.40625 "/></g></g></g><g fill="#1f2b5b" fill-opacity="1"><g transform="translate(258.489259, 304.590009)"><g><path d="M 6.75 -8.234375 C 6.75 -8.453125 6.835938 -8.617188 7.015625 -8.734375 C 7.203125 -8.859375 7.398438 -8.921875 7.609375 -8.921875 C 7.816406 -8.921875 8 -8.863281 8.15625 -8.75 C 8.320312 -8.644531 8.40625 -8.472656 8.40625 -8.234375 L 8.40625 -0.84375 C 8.40625 -0.5625 8.304688 -0.347656 8.109375 -0.203125 C 7.921875 -0.0664062 7.707031 0 7.46875 0 C 7.3125 0 7.15625 -0.0351562 7 -0.109375 C 6.851562 -0.179688 6.734375 -0.28125 6.640625 -0.40625 L 2.359375 -5.921875 L 2.40625 -5.140625 L 2.40625 -0.734375 C 2.40625 -0.472656 2.316406 -0.285156 2.140625 -0.171875 C 1.972656 -0.0546875 1.785156 0 1.578125 0 C 1.367188 0 1.175781 -0.0546875 1 -0.171875 C 0.820312 -0.285156 0.734375 -0.472656 0.734375 -0.734375 L 0.734375 -8.0625 C 0.734375 -8.34375 0.820312 -8.554688 1 -8.703125 C 1.175781 -8.847656 1.375 -8.921875 1.59375 -8.921875 C 1.769531 -8.921875 1.921875 -8.882812 2.046875 -8.8125 C 2.171875 -8.738281 2.289062 -8.632812 2.40625 -8.5 L 6.796875 -2.78125 L 6.75 -3.71875 Z M 6.75 -8.234375 "/></g></g></g><g fill="#1f2b5b" fill-opacity="1"><g transform="translate(269.865865, 304.590009)"><g><path d="M 7.25 -8.921875 C 7.519531 -8.921875 7.722656 -8.84375 7.859375 -8.6875 C 8.003906 -8.539062 8.078125 -8.375 8.078125 -8.1875 C 8.078125 -8.007812 8.003906 -7.84375 7.859375 -7.6875 C 7.722656 -7.539062 7.519531 -7.46875 7.25 -7.46875 L 4.640625 -7.46875 L 4.65625 -0.734375 C 4.65625 -0.484375 4.5625 -0.296875 4.375 -0.171875 C 4.195312 -0.0546875 4.019531 0 3.84375 0 C 3.644531 0 3.457031 -0.0546875 3.28125 -0.171875 C 3.113281 -0.296875 3.03125 -0.484375 3.03125 -0.734375 L 3.03125 -7.46875 L 0.4375 -7.46875 C 0.164062 -7.46875 -0.03125 -7.539062 -0.15625 -7.6875 C -0.28125 -7.84375 -0.34375 -8.007812 -0.34375 -8.1875 C -0.34375 -8.375 -0.28125 -8.539062 -0.15625 -8.6875 C -0.03125 -8.84375 0.164062 -8.921875 0.4375 -8.921875 Z M 7.25 -8.921875 "/></g></g></g></svg>